<svg width="29" height="29" viewBox="0 0 29 29" fill="none" xmlns="http://www.w3.org/2000/svg">
<path d="M14.49 28.98C6.50025 28.98 0 22.4798 0 14.49C0 6.50025 6.50025 0 14.49 0C22.4797 0 28.98 6.50025 28.98 14.49H23.22C23.22 9.675 19.3027 5.75775 14.4877 5.75775C9.67275 5.75775 5.7555 9.675 5.7555 14.49C5.7555 19.305 9.67275 23.2223 14.4877 23.2223V28.9823L14.49 28.98Z" fill="#EFEFEF"/>
<path d="M24.3495 28.9803C26.9081 28.9803 28.9823 26.9062 28.9823 24.3476C28.9823 21.789 26.9081 19.7148 24.3495 19.7148C21.7909 19.7148 19.7168 21.789 19.7168 24.3476C19.7168 26.9062 21.7909 28.9803 24.3495 28.9803Z" fill="#E4EA5C"/>
</svg>
