<svg width="550" height="113" viewBox="0 0 550 113" fill="none" xmlns="http://www.w3.org/2000/svg">
<g clip-path="url(#clip0_119_492)">
<path d="M25.0622 112.67C11.8891 112.67 1.17188 101.953 1.17188 88.7799C1.17188 75.6068 11.8891 64.8896 25.0622 64.8896C38.2352 64.8896 48.9525 75.6068 48.9525 88.7799H39.4557C39.4557 80.8412 32.9972 74.3826 25.0585 74.3826C17.1198 74.3826 10.6612 80.8412 10.6612 88.7799C10.6612 96.7186 17.1198 103.177 25.0585 103.177V112.674L25.0622 112.67Z" fill="#EFEFEF"/>
<path d="M304.976 105.67C295.661 114.985 280.503 114.985 271.188 105.67C261.873 96.3549 261.873 81.1972 271.188 71.8822C280.503 62.5672 295.661 62.5672 304.976 71.8822L298.262 78.5967C292.649 72.9839 283.516 72.9839 277.903 78.5967C272.29 84.2094 272.29 93.3426 277.903 98.9554C283.516 104.568 292.649 104.568 298.262 98.9554L304.976 105.67Z" fill="#EFEFEF"/>
<path d="M41.3179 112.671C45.5364 112.671 48.9561 109.251 48.9561 105.033C48.9561 100.814 45.5364 97.3943 41.3179 97.3943C37.0994 97.3943 33.6797 100.814 33.6797 105.033C33.6797 109.251 37.0994 112.671 41.3179 112.671Z" fill="#E4EA5C"/>
<path d="M78.7682 112.603C73.9865 112.603 69.7982 111.613 66.1998 109.632C62.6015 107.651 59.8118 104.872 57.8308 101.296C55.8499 97.7202 54.8594 93.5431 54.8594 88.7614C54.8594 83.9796 55.8499 79.7357 57.8308 76.1596C59.8118 72.5835 62.6015 69.8049 66.1998 67.824C69.7945 65.843 73.9865 64.8525 78.7682 64.8525C83.55 64.8525 87.7939 65.843 91.37 67.824C94.9461 69.8049 97.7358 72.5835 99.739 76.1596C101.742 79.7357 102.744 83.9351 102.744 88.7614C102.744 93.5876 101.742 97.7202 99.739 101.296C97.7358 104.872 94.9461 107.651 91.37 109.632C87.7939 111.613 83.5945 112.603 78.7682 112.603ZM78.7682 103.492C81.4392 103.492 83.7652 102.88 85.7461 101.652C87.7271 100.425 89.2666 98.7107 90.3647 96.5146C91.4627 94.3185 92.0118 91.7328 92.0118 88.7614C92.0118 85.7899 91.4627 83.1931 90.3647 80.9747C89.2666 78.7564 87.7271 77.0314 85.7461 75.8072C83.7652 74.5793 81.4392 73.9672 78.7682 73.9672C76.0973 73.9672 73.8344 74.5793 71.8534 75.8072C69.8724 77.0351 68.3329 78.7601 67.2348 80.9747C66.1368 83.1931 65.5878 85.7899 65.5878 88.7614C65.5878 91.7328 66.1368 94.3185 67.2348 96.5146C68.3329 98.7107 69.8724 100.425 71.8534 101.652C73.8344 102.88 76.1381 103.492 78.7682 103.492Z" fill="#EFEFEF"/>
<path d="M109.606 111.505V65.9497H127.183L134.806 106.853L142.367 65.9497H159.943V111.505H150.379V70.9244L141.914 111.505H127.635L119.237 70.9244V111.505H109.61H109.606Z" fill="#EFEFEF"/>
<path d="M168.96 111.505V65.9497H188.54C192.031 65.9497 194.98 66.4988 197.391 67.5968C199.803 68.6949 201.646 70.2567 202.915 72.2822C204.184 74.3076 204.822 76.7189 204.822 79.5197C204.822 82.3205 204.188 84.6799 202.915 86.7239C201.643 88.7717 199.803 90.3408 197.391 91.4426C194.98 92.5407 192.027 93.0897 188.54 93.0897H176.328V84.947H188.151C190.306 84.947 191.972 84.4944 193.159 83.5892C194.342 82.6841 194.936 81.3263 194.936 79.5197C194.936 77.7131 194.342 76.2997 193.159 75.4168C191.975 74.5339 190.306 74.0925 188.151 74.0925H176.651L179.04 71.7034V111.508H168.96V111.505Z" fill="#EFEFEF"/>
<path d="M211.044 111.505V65.9497H221.124V108.789L214.339 102.394H239.605V111.505H211.044Z" fill="#EFEFEF"/>
<path d="M246.426 111.505V65.9497H256.505V111.505H246.426Z" fill="#EFEFEF"/>
<path d="M309.788 111.505L323.098 65.9497H339.703L353.08 111.505H342.611L331.434 70.8613L320.19 111.505H309.788ZM320.835 97.6749V89.5321H341.966V97.6749H320.835Z" fill="#EFEFEF"/>
<path d="M351.566 75.0607V65.9497H386.07V75.0607H351.566ZM363.778 111.505V68.4686H373.857V111.505H363.778Z" fill="#EFEFEF"/>
<path d="M392.161 111.505V65.9497H402.24V111.505H392.161Z" fill="#EFEFEF"/>
<path d="M433.02 112.603C428.238 112.603 424.05 111.613 420.451 109.632C416.853 107.651 414.063 104.872 412.082 101.296C410.101 97.7202 409.111 93.5431 409.111 88.7614C409.111 83.9796 410.101 79.7357 412.082 76.1596C414.063 72.5835 416.853 69.8049 420.451 67.824C424.046 65.843 428.238 64.8525 433.02 64.8525C437.801 64.8525 442.045 65.843 445.621 67.824C449.198 69.8049 451.987 72.5835 453.991 76.1596C455.994 79.7357 456.995 83.9351 456.995 88.7614C456.995 93.5876 455.994 97.7202 453.991 101.296C451.987 104.872 449.198 107.651 445.621 109.632C442.045 111.613 437.846 112.603 433.02 112.603ZM433.02 103.492C435.691 103.492 438.017 102.88 439.998 101.652C441.979 100.425 443.518 98.7107 444.616 96.5146C445.714 94.3185 446.263 91.7328 446.263 88.7614C446.263 85.7899 445.714 83.1931 444.616 80.9747C443.518 78.7564 441.979 77.0314 439.998 75.8072C438.017 74.5793 435.691 73.9672 433.02 73.9672C430.349 73.9672 428.086 74.5793 426.105 75.8072C424.124 77.0351 422.584 78.7601 421.486 80.9747C420.388 83.1931 419.839 85.7899 419.839 88.7614C419.839 91.7328 420.388 94.3185 421.486 96.5146C422.584 98.7107 424.124 100.425 426.105 101.652C428.086 102.88 430.39 103.492 433.02 103.492Z" fill="#EFEFEF"/>
<path d="M532.814 112.603C529.282 112.603 526.159 112.054 523.443 110.956C520.728 109.858 518.52 108.167 516.821 105.885C515.119 103.604 513.987 100.673 513.431 97.097L523.51 95.0938C523.81 97.2491 524.393 99.026 525.253 100.425C526.114 101.823 527.201 102.869 528.518 103.559C529.831 104.249 531.263 104.594 532.814 104.594C534.279 104.594 535.507 104.357 536.497 103.882C537.488 103.407 538.241 102.739 538.76 101.879C539.276 101.018 539.536 100.005 539.536 98.8405C539.536 97.3344 539.116 96.0954 538.274 95.1235C537.436 94.1552 535.959 93.3465 533.849 92.701L526.548 90.4381C523.447 89.4922 520.935 87.9415 519.021 85.7862C517.103 83.6346 516.146 81.0489 516.146 78.033C516.146 75.4065 516.803 73.0991 518.116 71.1181C519.429 69.1372 521.28 67.5977 523.673 66.4996C526.062 65.4015 528.896 64.8525 532.172 64.8525C535.448 64.8525 538.148 65.3496 540.541 66.3401C542.93 67.3306 544.87 68.7328 546.358 70.5394C547.845 72.3498 548.758 74.5236 549.103 77.0648L539.476 78.4225C539.001 76.397 538.141 74.9131 536.891 73.9635C535.64 73.0175 534.09 72.5427 532.239 72.5427C530.558 72.5427 529.2 72.9544 528.169 73.7706C527.134 74.5904 526.619 75.733 526.619 77.1946C526.619 78.3594 527.008 79.361 527.783 80.1994C528.559 81.0378 529.742 81.7167 531.337 82.236L539.48 84.7549C542.841 85.8307 545.434 87.4593 547.267 89.6331C549.095 91.807 550.012 94.5744 550.012 97.9354C550.012 100.866 549.344 103.429 548.009 105.626C546.673 107.822 544.722 109.536 542.162 110.763C539.599 111.991 536.486 112.603 532.825 112.603H532.814Z" fill="#EFEFEF"/>
<path d="M473.362 65.9543H463.609V111.468H473.362V65.9543Z" fill="#EFEFEF"/>
<path d="M482.711 65.9543H472.955L488.398 111.468H498.151L482.711 65.9543Z" fill="#EFEFEF"/>
<path d="M497.746 111.469H507.499V65.9546H497.746V111.469Z" fill="#EFEFEF"/>
<path d="M14.1635 18.9082L9.41515 10.8879L4.66677 18.9082H0L6.06161 8.90322L0.779032 0H5.55338L9.41515 6.70709L13.251 0H18.0253L12.7687 8.90322L18.8043 18.9082H14.1635Z" fill="#EFEFEF"/>
<path d="M20.4106 18.9081L25.9381 -0.000152588H32.8306L38.384 18.9081H34.04L29.3992 2.03646L24.7324 18.9081H20.4144H20.4106ZM24.9995 13.1692V9.78968H33.7692V13.1692H24.9995Z" fill="#EFEFEF"/>
<path d="M40.8765 18.9081V-0.000152588H49.0044C50.4511 -0.000152588 51.679 0.226138 52.6806 0.682428C53.6823 1.13872 54.4465 1.78791 54.9732 2.6263C55.5 3.46839 55.7634 4.4663 55.7634 5.63113C55.7634 6.79597 55.5 7.77162 54.9732 8.62113C54.4465 9.47065 53.6823 10.1235 52.6806 10.5798C51.679 11.0361 50.4548 11.2624 49.0044 11.2624H43.9369V7.88291H48.8448C49.7389 7.88291 50.4326 7.69371 50.9223 7.31904C51.4156 6.94436 51.6605 6.38049 51.6605 5.63113C51.6605 4.88178 51.4156 4.29565 50.9223 3.92839C50.4289 3.56114 49.7389 3.37936 48.8448 3.37936H44.0705L45.0647 2.38517V18.9081H40.8802H40.8765Z" fill="#EFEFEF"/>
<path d="M58.5796 18.9081V-0.000152588H62.7641V18.9081H58.5796ZM61.3136 10.5947V6.81452H68.1543V10.5947H61.3136ZM70.113 18.9081L64.6968 8.42081L70.1649 -0.000152588H74.8057L68.5549 9.54855L68.5809 7.13355L74.8836 18.9081H70.1093H70.113Z" fill="#EFEFEF"/>
<path d="M77.4619 18.9081V-0.000152588H81.6464V18.9081H77.4619Z" fill="#EFEFEF"/>
<path d="M85.4268 18.9081V-0.000152588H92.9648C94.9495 -0.000152588 96.4371 0.400492 97.4313 1.20549C98.4255 2.01049 98.9188 3.11968 98.9188 4.53307C98.9188 5.08952 98.8076 5.61259 98.585 6.10226C98.3624 6.59565 98.0285 7.01855 97.5908 7.37468C97.153 7.73081 96.604 8.00161 95.94 8.17968C96.8526 8.28726 97.639 8.55807 98.2993 8.99952C98.9597 9.43726 99.479 10.016 99.8537 10.7282C100.228 11.4442 100.418 12.2677 100.418 13.1952C100.418 14.9647 99.7943 16.3595 98.5553 17.3797C97.3126 18.3998 95.5282 18.9081 93.2059 18.9081H85.4268ZM89.6113 17.5429L87.7342 15.6658H92.9908C93.9924 15.6658 94.764 15.4432 95.3093 14.9944C95.8547 14.5492 96.1292 13.8777 96.1292 12.9837C96.1292 12.0897 95.8472 11.4405 95.2834 10.9842C94.7195 10.5279 93.9182 10.3016 92.8832 10.3016H88.7543V7.32274H92.375C93.1614 7.32274 93.7661 7.12242 94.1853 6.71807C94.6045 6.31742 94.8159 5.8092 94.8159 5.20081C94.8159 4.55533 94.6045 4.03968 94.1853 3.64646C93.7661 3.25323 93.1614 3.05662 92.375 3.05662H87.7342L89.6113 1.17952V17.5392V17.5429Z" fill="#EFEFEF"/>
<path d="M104.898 19.1502C104.183 19.1502 103.596 18.9165 103.14 18.4528C102.684 17.989 102.458 17.4178 102.458 16.7352C102.458 16.0526 102.684 15.511 103.14 15.0473C103.596 14.5836 104.183 14.3499 104.898 14.3499C105.614 14.3499 106.193 14.5836 106.642 15.0473C107.087 15.511 107.313 16.0749 107.313 16.7352C107.313 17.3955 107.091 17.9853 106.642 18.4528C106.193 18.9165 105.614 19.1502 104.898 19.1502Z" fill="#EFEFEF"/>
<path d="M1.28809 45.733V26.8248H5.4726V45.733H1.28809ZM4.02583 37.4159V33.6358H10.8665V37.4159H4.02583ZM12.8215 45.733L7.40534 35.2458L12.8771 26.8248H17.5179L11.2671 36.3735L11.2931 33.9585L17.5958 45.733H12.8215Z" fill="#EFEFEF"/>
<path d="M27.8921 46.1861C25.9075 46.1861 24.1676 45.7743 22.6763 44.9508C21.185 44.1272 20.0239 42.9735 19.2041 41.4896C18.3805 40.0058 17.9688 38.2696 17.9688 36.285C17.9688 34.3003 18.3805 32.5382 19.2041 31.0543C20.0276 29.5705 21.185 28.4167 22.6763 27.5932C24.1676 26.7697 25.9075 26.3579 27.8921 26.3579C29.8768 26.3579 31.6389 26.7697 33.1228 27.5932C34.6066 28.4167 35.7641 29.5705 36.595 31.0543C37.426 32.5382 37.8415 34.2817 37.8415 36.285C37.8415 38.2882 37.426 40.0058 36.595 41.4896C35.7641 42.9735 34.6066 44.1272 33.1228 44.9508C31.6389 45.7743 29.8954 46.1861 27.8921 46.1861ZM27.8921 42.4059C29.0013 42.4059 29.9658 42.15 30.7894 41.6417C31.6129 41.1335 32.251 40.4213 32.7073 39.5087C33.1636 38.5961 33.3899 37.524 33.3899 36.2887C33.3899 35.0534 33.1636 33.9776 32.7073 33.0576C32.251 32.1376 31.6129 31.4216 30.7894 30.9134C29.9658 30.4051 29.0013 30.1492 27.8921 30.1492C26.7829 30.1492 25.8444 30.4051 25.0208 30.9134C24.1973 31.4216 23.5592 32.1376 23.1029 33.0576C22.6466 33.9776 22.4204 35.0571 22.4204 36.2887C22.4204 37.5203 22.6466 38.5961 23.1029 39.5087C23.5592 40.4213 24.1973 41.1298 25.0208 41.6417C25.8444 42.15 26.8015 42.4059 27.8921 42.4059Z" fill="#EFEFEF"/>
<path d="M40.9287 45.733V26.8248H45.1132V45.733H40.9287ZM43.5848 37.4159V33.6617H53.9645V37.4159H43.5848ZM52.4361 45.733V26.8248H56.5947V45.733H52.4361Z" fill="#EFEFEF"/>
<path d="M60.4019 45.733V26.8248H72.0947V30.605H64.5864V45.733H60.4019Z" fill="#EFEFEF"/>
<path d="M74.8574 45.733V26.8248H82.9853C84.4321 26.8248 85.66 27.0511 86.6616 27.5074C87.6632 27.9637 88.4274 28.6129 88.9542 29.4512C89.481 30.2933 89.7443 31.2912 89.7443 32.4561C89.7443 33.6209 89.481 34.5966 88.9542 35.4461C88.4274 36.2956 87.6632 36.9485 86.6616 37.4048C85.66 37.8611 84.4358 38.0874 82.9853 38.0874H77.9179V34.7079H82.8258C83.7198 34.7079 84.4135 34.5187 84.9032 34.144C85.3966 33.7693 85.6414 33.2054 85.6414 32.4561C85.6414 31.7067 85.3966 31.1206 84.9032 30.7533C84.4098 30.3861 83.7198 30.2043 82.8258 30.2043H78.0515L79.0456 29.2101V45.733H74.8611H74.8574Z" fill="#EFEFEF"/>
<path d="M92.5596 45.733V26.8248H104.764V30.3935H94.841L96.7441 27.9785V44.609L94.841 42.168H104.82V45.7367H92.5633L92.5596 45.733ZM95.2973 37.4159V33.8472H102.995V37.4159H95.2973Z" fill="#EFEFEF"/>
<path d="M116.242 46.186C114.346 46.186 112.684 45.7743 111.253 44.947C109.821 44.1197 108.704 42.9623 107.899 41.4747C107.094 39.9834 106.693 38.251 106.693 36.2775C106.693 34.7714 106.92 33.4099 107.376 32.1968C107.832 30.9838 108.485 29.9451 109.335 29.0733C110.184 28.2015 111.189 27.5338 112.351 27.0664C113.512 26.5989 114.799 26.3652 116.212 26.3652C117.767 26.3652 119.128 26.5915 120.289 27.0404C121.45 27.4893 122.419 28.157 123.187 29.0473C123.954 29.9377 124.511 31.0283 124.849 32.3193L120.772 33.5546C120.43 32.4417 119.874 31.5922 119.095 31.006C118.316 30.4199 117.348 30.1231 116.186 30.1231C115.148 30.1231 114.254 30.3717 113.504 30.8651C112.755 31.3585 112.173 32.067 111.761 32.9833C111.349 33.8996 111.145 34.9976 111.145 36.2775C111.145 37.5573 111.349 38.6294 111.761 39.5568C112.173 40.4843 112.759 41.1965 113.519 41.6899C114.28 42.1833 115.177 42.4318 116.216 42.4318C117.377 42.4318 118.345 42.1351 119.113 41.5378C119.881 40.9405 120.438 40.0947 120.775 39.0004L124.826 40.206C124.485 41.5007 123.932 42.5951 123.164 43.4928C122.396 44.3905 121.439 45.062 120.293 45.5146C119.147 45.9634 117.8 46.186 116.242 46.186Z" fill="#EFEFEF"/>
<path d="M134.269 45.733V26.8248H138.454V45.733H134.269ZM136.925 37.4159V33.6617H147.305V37.4159H136.925ZM145.776 45.733V26.8248H149.935V45.733H145.776Z" fill="#EFEFEF"/>
<path d="M153.741 45.733V26.8248H165.946V30.3935H156.022L157.925 27.9785V44.609L156.022 42.168H166.001V45.7367H153.744L153.741 45.733ZM156.475 37.4159V33.8472H164.172V37.4159H156.475Z" fill="#EFEFEF"/>
<path d="M176.001 46.1861C175.088 46.1861 174.198 46.0933 173.334 45.9042C172.466 45.715 171.664 45.4033 170.934 44.9656C170.199 44.5279 169.58 43.9195 169.071 43.1404C168.563 42.3614 168.2 41.3746 167.984 40.1764L172.221 39.479C172.417 40.5511 172.829 41.3338 173.456 41.8272C174.083 42.3206 174.896 42.5654 175.897 42.5654C176.951 42.5654 177.77 42.3317 178.353 41.868C178.935 41.4043 179.225 40.7403 179.225 39.8834C179.225 39.0264 178.958 38.3142 178.42 37.8579C177.882 37.4016 177.095 37.1753 176.06 37.1753H173.271V34.1964H175.845C176.435 34.1964 176.932 34.1037 177.333 33.9145C177.733 33.7253 178.049 33.4582 178.271 33.1095C178.494 32.7608 178.605 32.3713 178.605 31.9409C178.605 31.314 178.371 30.8021 177.908 30.3977C177.444 29.9971 176.754 29.793 175.841 29.793C175.289 29.793 174.777 29.8821 174.313 30.0601C173.849 30.2382 173.467 30.5016 173.174 30.8503C172.877 31.199 172.696 31.6405 172.625 32.1784L168.496 31.6145C168.656 30.5795 169.001 29.7188 169.528 29.04C170.054 28.3611 170.696 27.8232 171.446 27.43C172.195 27.0367 172.989 26.7585 173.82 26.599C174.651 26.4395 175.459 26.3579 176.246 26.3579C177.585 26.3579 178.739 26.5545 179.707 26.9477C180.671 27.3409 181.413 27.8974 181.933 28.6097C182.452 29.3256 182.712 30.1751 182.712 31.1582C182.712 32.1413 182.415 32.9351 181.825 33.64C181.235 34.3448 180.393 34.8234 179.303 35.0756C180.16 35.2203 180.901 35.5096 181.528 35.9474C182.155 36.3851 182.641 36.9564 182.99 37.665C183.339 38.3698 183.513 39.1785 183.513 40.0911C183.513 41.3264 183.224 42.3985 182.641 43.3111C182.059 44.2237 181.209 44.9285 180.093 45.4293C178.976 45.9301 177.611 46.1787 176.001 46.1787V46.1861Z" fill="#EFEFEF"/>
<path d="M186.944 46.1861C186.532 46.1861 186.154 46.1564 185.805 46.0934C185.456 46.0303 185.137 45.945 184.852 45.8374V42.1908C185.048 42.2613 185.245 42.3132 185.441 42.3392C185.638 42.3652 185.835 42.38 186.031 42.38C186.462 42.38 186.821 42.2576 187.118 42.0127C187.415 41.7679 187.649 41.3598 187.83 40.7885C188.008 40.2173 188.127 39.4494 188.179 38.4885C188.231 37.5463 188.283 36.6671 188.328 35.851C188.372 35.0348 188.402 34.1742 188.42 33.2653L188.609 26.8216H202.502V45.7298H198.318V27.7342L199.954 30.5758H190.19L192.471 27.519L192.312 33.1355C192.293 33.6437 192.282 34.1297 192.271 34.6008C192.263 35.0719 192.245 35.5282 192.219 35.9697C192.193 36.4148 192.171 36.8823 192.152 37.3794C192.134 37.8765 192.108 38.4144 192.071 38.9931C191.982 40.7106 191.744 42.1018 191.358 43.159C190.973 44.2163 190.424 44.9879 189.708 45.4664C188.992 45.945 188.072 46.1861 186.944 46.1861Z" fill="#EFEFEF"/>
<path d="M204.997 45.733L210.52 26.8248H217.413L222.966 45.733H218.622L213.981 28.8614L209.315 45.733H204.997ZM209.582 39.9904V36.6109H218.351V39.9904H209.582Z" fill="#EFEFEF"/>
<path d="M225.458 45.733V26.8248H232.755L235.92 43.804L239.058 26.8248H246.355V45.733H242.386V28.8874L238.873 45.733H232.945L229.458 28.8874V45.733H225.462H225.458Z" fill="#EFEFEF"/>
<path d="M250.136 45.733V26.8248H254.321V45.733H250.136ZM252.792 37.4159V33.6617H263.172V37.4159H252.792ZM261.644 45.733V26.8248H265.802V45.733H261.644Z" fill="#EFEFEF"/>
<path d="M269.607 45.733V26.8248H273.603V42.7838L279.208 26.8248H285.911V45.733H281.916V29.8259L276.311 45.733H269.604H269.607Z" fill="#EFEFEF"/>
<path d="M302.572 45.733L297.823 37.7127L293.075 45.733H288.408L294.47 35.728L289.187 26.8248H293.962L297.823 33.5319L301.659 26.8248H306.433L301.177 35.728L307.213 45.733H302.572Z" fill="#EFEFEF"/>
<path d="M316.115 45.7335V26.8253H320.3V45.7335H316.115ZM318.582 30.5758V26.8216H329.203V30.5758H318.582ZM327.274 45.7335V26.8253H331.432V45.7335H327.274Z" fill="#EFEFEF"/>
<path d="M335.239 45.733V26.8248H343.367C344.814 26.8248 346.042 27.0511 347.043 27.5074C348.045 27.9637 348.809 28.6129 349.336 29.4512C349.863 30.2933 350.126 31.2912 350.126 32.4561C350.126 33.6209 349.863 34.5966 349.336 35.4461C348.809 36.2956 348.045 36.9485 347.043 37.4048C346.042 37.8611 344.818 38.0874 343.367 38.0874H338.3V34.7079H343.208C344.102 34.7079 344.795 34.5187 345.285 34.144C345.778 33.7693 346.023 33.2054 346.023 32.4561C346.023 31.7067 345.778 31.1206 345.285 30.7533C344.792 30.3861 344.102 30.2043 343.208 30.2043H338.433L339.427 29.2101V45.733H335.243H335.239Z" fill="#EFEFEF"/>
<path d="M362.435 46.1861C360.45 46.1861 358.711 45.7743 357.219 44.9508C355.728 44.1272 354.567 42.9735 353.747 41.4896C352.923 40.0058 352.512 38.2696 352.512 36.285C352.512 34.3003 352.923 32.5382 353.747 31.0543C354.571 29.5705 355.728 28.4167 357.219 27.5932C358.711 26.7697 360.45 26.3579 362.435 26.3579C364.42 26.3579 366.182 26.7697 367.666 27.5932C369.15 28.4167 370.307 29.5705 371.138 31.0543C371.969 32.5382 372.384 34.2817 372.384 36.285C372.384 38.2882 371.969 40.0058 371.138 41.4896C370.307 42.9735 369.15 44.1272 367.666 44.9508C366.182 45.7743 364.438 46.1861 362.435 46.1861ZM362.435 42.4059C363.544 42.4059 364.509 42.15 365.332 41.6417C366.156 41.1335 366.794 40.4213 367.25 39.5087C367.707 38.5961 367.933 37.524 367.933 36.2887C367.933 35.0534 367.707 33.9776 367.25 33.0576C366.794 32.1376 366.156 31.4216 365.332 30.9134C364.509 30.4051 363.544 30.1492 362.435 30.1492C361.326 30.1492 360.387 30.4051 359.564 30.9134C358.74 31.4216 358.102 32.1376 357.646 33.0576C357.19 33.9776 356.963 35.0571 356.963 36.2887C356.963 37.5203 357.19 38.5961 357.646 39.5087C358.102 40.4213 358.74 41.1298 359.564 41.6417C360.387 42.15 361.344 42.4059 362.435 42.4059Z" fill="#EFEFEF"/>
<path d="M383.706 44.3383C381.956 44.3383 380.423 43.997 379.121 43.3182C377.816 42.6393 376.803 41.6822 376.076 40.4469C375.352 39.2116 374.989 37.7833 374.989 36.1548C374.989 34.5262 375.352 33.098 376.076 31.8627C376.799 30.6274 377.816 29.6777 379.121 29.0062C380.427 28.3348 381.956 28.0009 383.706 28.0009H384.912V31.488H383.814C382.864 31.488 382.052 31.6772 381.373 32.0519C380.694 32.4266 380.175 32.9608 379.819 33.647C379.463 34.337 379.281 35.1717 379.281 36.1548C379.281 37.1379 379.459 37.9503 379.819 38.6477C380.175 39.3451 380.694 39.883 381.373 40.2577C382.052 40.6324 382.864 40.8216 383.814 40.8216H384.912V44.3346H383.706V44.3383ZM384.081 46.5345V42.3499L384.215 42.0272V30.2787L384.081 29.9559V26.0125H388.266V30.0079L388.132 30.4901V41.8083L388.266 42.2906V46.527H384.081V46.5345ZM387.409 44.3383V40.8253H388.507C389.453 40.8253 390.269 40.6361 390.948 40.2614C391.627 39.8867 392.146 39.3488 392.502 38.6514C392.858 37.954 393.04 37.123 393.04 36.1585C393.04 35.194 392.862 34.3408 392.502 33.6508C392.146 32.9645 391.627 32.4303 390.948 32.0556C390.269 31.6809 389.453 31.4917 388.507 31.4917H387.409V28.0046H388.644C390.376 28.0046 391.897 28.3385 393.203 29.01C394.509 29.6814 395.529 30.6311 396.26 31.8664C396.995 33.1017 397.358 34.53 397.358 36.1585C397.358 37.787 396.991 39.2153 396.26 40.4506C395.526 41.6859 394.509 42.643 393.203 43.3219C391.897 44.0008 390.376 44.342 388.644 44.342H387.409V44.3383Z" fill="#EFEFEF"/>
<path d="M400.175 45.733V26.8248H412.38V30.3935H402.456L404.359 27.9785V44.609L402.456 42.168H412.435V45.7367H400.179L400.175 45.733ZM402.909 37.4159V33.8472H410.606V37.4159H402.909Z" fill="#EFEFEF"/>
<path d="M423.856 46.186C421.96 46.186 420.298 45.7743 418.866 44.947C417.434 44.1197 416.318 42.9623 415.513 41.4747C414.708 39.9834 414.307 38.251 414.307 36.2775C414.307 34.7714 414.533 33.4099 414.99 32.1968C415.446 30.9838 416.099 29.9451 416.948 29.0733C417.798 28.2015 418.803 27.5338 419.964 27.0664C421.126 26.5989 422.413 26.3652 423.826 26.3652C425.381 26.3652 426.742 26.5915 427.903 27.0404C429.064 27.4893 430.032 28.157 430.8 29.0473C431.568 29.9377 432.125 31.0283 432.462 32.3193L428.385 33.5546C428.044 32.4417 427.488 31.5922 426.709 31.006C425.93 30.4199 424.961 30.1231 423.8 30.1231C422.762 30.1231 421.867 30.3717 421.118 30.8651C420.369 31.3585 419.786 32.067 419.375 32.9833C418.963 33.8996 418.759 34.9976 418.759 36.2775C418.759 37.5573 418.963 38.6294 419.375 39.5568C419.786 40.4843 420.372 41.1965 421.133 41.6899C421.893 42.1833 422.791 42.4318 423.83 42.4318C424.991 42.4318 425.959 42.1351 426.727 41.5378C427.495 40.9405 428.052 40.0947 428.389 39.0004L432.44 40.206C432.099 41.5007 431.546 42.5951 430.778 43.4928C430.01 44.3905 429.053 45.062 427.907 45.5146C426.761 45.9634 425.414 46.186 423.856 46.186Z" fill="#EFEFEF"/>
<path d="M435.472 45.733V26.8248H439.657V45.733H435.472Z" fill="#EFEFEF"/>
<path d="M452.663 46.1861C450.678 46.1861 448.938 45.7743 447.447 44.9508C445.956 44.1272 444.794 42.9735 443.975 41.4896C443.151 40.0058 442.739 38.2696 442.739 36.285C442.739 34.3003 443.151 32.5382 443.975 31.0543C444.798 29.5705 445.956 28.4167 447.447 27.5932C448.938 26.7697 450.678 26.3579 452.663 26.3579C454.647 26.3579 456.409 26.7697 457.893 27.5932C459.377 28.4167 460.535 29.5705 461.366 31.0543C462.197 32.5382 462.612 34.2817 462.612 36.285C462.612 38.2882 462.197 40.0058 461.366 41.4896C460.535 42.9735 459.377 44.1272 457.893 44.9508C456.409 45.7743 454.666 46.1861 452.663 46.1861ZM452.663 42.4059C453.772 42.4059 454.736 42.15 455.56 41.6417C456.383 41.1335 457.021 40.4213 457.478 39.5087C457.934 38.5961 458.16 37.524 458.16 36.2887C458.16 35.0534 457.934 33.9776 457.478 33.0576C457.021 32.1376 456.383 31.4216 455.56 30.9134C454.736 30.4051 453.772 30.1492 452.663 30.1492C451.553 30.1492 450.615 30.4051 449.791 30.9134C448.968 31.4216 448.33 32.1376 447.873 33.0576C447.417 33.9776 447.191 35.0571 447.191 36.2887C447.191 37.5203 447.417 38.5961 447.873 39.5087C448.33 40.4213 448.968 41.1298 449.791 41.6417C450.615 42.15 451.572 42.4059 452.663 42.4059Z" fill="#EFEFEF"/>
<path d="M465.698 45.733V26.8248H469.882V45.733H465.698ZM468.354 37.4159V33.6617H478.734V37.4159H468.354ZM477.205 45.733V26.8248H481.364V45.733H477.205Z" fill="#EFEFEF"/>
<path d="M483.882 45.733L489.406 26.8248H496.299L501.852 45.733H497.508L492.867 28.8614L488.2 45.733H483.882ZM488.471 39.9904V36.6109H497.241V39.9904H488.471Z" fill="#EFEFEF"/>
<path d="M505.529 46.1861C505.117 46.1861 504.739 46.1564 504.39 46.0934C504.042 46.0303 503.723 45.945 503.437 45.8374V42.1908C503.634 42.2613 503.83 42.3132 504.027 42.3392C504.223 42.3652 504.42 42.38 504.617 42.38C505.047 42.38 505.407 42.2576 505.704 42.0127C506 41.7679 506.234 41.3598 506.416 40.7885C506.594 40.2173 506.713 39.4494 506.765 38.4885C506.817 37.5463 506.868 36.6671 506.913 35.851C506.957 35.0348 506.987 34.1742 507.006 33.2653L507.195 26.8216H521.088V45.7298H516.903V27.7342L518.539 30.5758H508.775L511.057 27.519L510.897 33.1355C510.879 33.6437 510.867 34.1297 510.856 34.6008C510.849 35.0719 510.83 35.5282 510.804 35.9697C510.778 36.4148 510.756 36.8823 510.738 37.3794C510.719 37.8765 510.693 38.4144 510.656 38.9931C510.567 40.7106 510.33 42.1018 509.944 43.159C509.558 44.2163 509.009 44.9879 508.293 45.4664C507.577 45.945 506.657 46.1861 505.529 46.1861Z" fill="#EFEFEF"/>
<path d="M524.868 45.733V26.8248H529.052V45.733H524.868Z" fill="#EFEFEF"/>
<path d="M532.831 45.733V26.8248H540.369C542.354 26.8248 543.841 27.2254 544.836 28.0304C545.83 28.8354 546.323 29.9446 546.323 31.358C546.323 31.9145 546.212 32.4375 545.989 32.9272C545.767 33.4206 545.433 33.8435 544.995 34.1996C544.557 34.5558 544.008 34.8266 543.344 35.0046C544.257 35.1122 545.043 35.383 545.704 35.8245C546.364 36.2622 546.883 36.8409 547.258 37.5532C547.633 38.2691 547.822 39.0927 547.822 40.0201C547.822 41.7896 547.199 43.1845 545.96 44.2046C544.717 45.2248 542.933 45.733 540.61 45.733H532.831ZM537.016 44.3641L535.139 42.487H540.395C541.397 42.487 542.168 42.2645 542.714 41.8156C543.259 41.3704 543.534 40.699 543.534 39.805C543.534 38.9109 543.252 38.2617 542.688 37.8054C542.124 37.3491 541.323 37.1229 540.288 37.1229H536.159V34.144H539.779C540.566 34.144 541.17 33.9437 541.59 33.5393C542.009 33.1387 542.22 32.6304 542.22 32.0221C542.22 31.3766 542.009 30.8609 541.59 30.4677C541.17 30.0745 540.566 29.8779 539.779 29.8779H535.139L537.016 28.0008V44.3604V44.3641Z" fill="#EFEFEF"/>
</g>
<defs>
<clipPath id="clip0_119_492">
<rect width="550" height="112.67" fill="white"/>
</clipPath>
</defs>
</svg>
