<svg width="296" height="47" viewBox="0 0 296 47" fill="none" xmlns="http://www.w3.org/2000/svg">
<g clip-path="url(#clip0_81_316)">
<path d="M12.88 46.5281C5.778 46.5281 0 40.7501 0 33.6481C0 26.5461 5.778 20.7681 12.88 20.7681C19.982 20.7681 25.76 26.5461 25.76 33.6481H20.64C20.64 29.3681 17.158 25.8861 12.878 25.8861C8.598 25.8861 5.116 29.3681 5.116 33.6481C5.116 37.9281 8.598 41.4101 12.878 41.4101V46.5301L12.88 46.5281Z" fill="#EFEFEF"/>
<path d="M163.792 42.7562C158.77 47.7782 150.598 47.7782 145.576 42.7562C140.554 37.7342 140.554 29.5622 145.576 24.5402C150.598 19.5182 158.77 19.5182 163.792 24.5402L160.172 28.1602C157.146 25.1342 152.222 25.1342 149.196 28.1602C146.17 31.1862 146.17 36.1102 149.196 39.1362C152.222 42.1622 157.146 42.1622 160.172 39.1362L163.792 42.7562Z" fill="#EFEFEF"/>
<path d="M21.6439 46.528C23.9182 46.528 25.7619 44.6843 25.7619 42.41C25.7619 40.1357 23.9182 38.292 21.6439 38.292C19.3696 38.292 17.5259 40.1357 17.5259 42.41C17.5259 44.6843 19.3696 46.528 21.6439 46.528Z" fill="#EFEFEF"/>
<path d="M41.8338 46.492C39.2558 46.492 36.9978 45.958 35.0578 44.89C33.1178 43.822 31.6138 42.324 30.5458 40.396C29.4778 38.468 28.9438 36.216 28.9438 33.638C28.9438 31.06 29.4778 28.772 30.5458 26.844C31.6138 24.916 33.1178 23.418 35.0578 22.35C36.9958 21.282 39.2558 20.748 41.8338 20.748C44.4118 20.748 46.6998 21.282 48.6278 22.35C50.5558 23.418 52.0599 24.916 53.1399 26.844C54.2199 28.772 54.7598 31.036 54.7598 33.638C54.7598 36.24 54.2199 38.468 53.1399 40.396C52.0599 42.324 50.5558 43.822 48.6278 44.89C46.6998 45.958 44.4358 46.492 41.8338 46.492ZM41.8338 41.58C43.2738 41.58 44.5278 41.25 45.5958 40.588C46.6638 39.926 47.4938 39.002 48.0858 37.818C48.6778 36.634 48.9738 35.24 48.9738 33.638C48.9738 32.036 48.6778 30.636 48.0858 29.44C47.4938 28.244 46.6638 27.314 45.5958 26.654C44.5278 25.992 43.2738 25.662 41.8338 25.662C40.3938 25.662 39.1738 25.992 38.1058 26.654C37.0378 27.316 36.2078 28.246 35.6158 29.44C35.0238 30.636 34.7278 32.036 34.7278 33.638C34.7278 35.24 35.0238 36.634 35.6158 37.818C36.2078 39.002 37.0378 39.926 38.1058 40.588C39.1738 41.25 40.4158 41.58 41.8338 41.58Z" fill="#EFEFEF"/>
<path d="M58.4619 45.9001V21.3401H67.9379L72.0479 43.3921L76.1239 21.3401H85.5999V45.9001H80.4439V24.0221L75.8799 45.9001H68.1819L63.6539 24.0221V45.9001H58.4639H58.4619Z" fill="#EFEFEF"/>
<path d="M90.46 45.9001V21.3401H101.016C102.898 21.3401 104.488 21.6361 105.788 22.2281C107.088 22.8201 108.082 23.6621 108.766 24.7541C109.45 25.8461 109.794 27.1461 109.794 28.6561C109.794 30.1661 109.452 31.4381 108.766 32.5401C108.08 33.6441 107.088 34.4901 105.788 35.0841C104.488 35.6761 102.896 35.9721 101.016 35.9721H94.432V31.5821H100.806C101.968 31.5821 102.866 31.3381 103.506 30.8501C104.144 30.3621 104.464 29.6301 104.464 28.6561C104.464 27.6821 104.144 26.9201 103.506 26.4441C102.868 25.9681 101.968 25.7301 100.806 25.7301H94.606L95.894 24.4421V45.9021H90.46V45.9001Z" fill="#EFEFEF"/>
<path d="M113.15 45.9001V21.3401H118.584V44.4361L114.926 40.9881H128.548V45.9001H113.15Z" fill="#EFEFEF"/>
<path d="M132.224 45.9001V21.3401H137.658V45.9001H132.224Z" fill="#EFEFEF"/>
<path d="M166.384 45.9001L173.56 21.3401H182.512L189.724 45.9001H184.08L178.054 23.9881L171.992 45.9001H166.384ZM172.34 38.4461V34.0561H183.732V38.4461H172.34Z" fill="#EFEFEF"/>
<path d="M188.908 26.2521V21.3401H207.51V26.2521H188.908ZM195.492 45.9001V22.6981H200.926V45.9001H195.492Z" fill="#EFEFEF"/>
<path d="M210.796 45.9001V21.3401H216.23V45.9001H210.796Z" fill="#EFEFEF"/>
<path d="M232.822 46.492C230.244 46.492 227.986 45.958 226.046 44.89C224.106 43.822 222.602 42.324 221.534 40.396C220.466 38.468 219.932 36.216 219.932 33.638C219.932 31.06 220.466 28.772 221.534 26.844C222.602 24.916 224.106 23.418 226.046 22.35C227.984 21.282 230.244 20.748 232.822 20.748C235.4 20.748 237.688 21.282 239.616 22.35C241.544 23.418 243.048 24.916 244.128 26.844C245.208 28.772 245.748 31.036 245.748 33.638C245.748 36.24 245.208 38.468 244.128 40.396C243.048 42.324 241.544 43.822 239.616 44.89C237.688 45.958 235.424 46.492 232.822 46.492ZM232.822 41.58C234.262 41.58 235.516 41.25 236.584 40.588C237.652 39.926 238.482 39.002 239.074 37.818C239.666 36.634 239.962 35.24 239.962 33.638C239.962 32.036 239.666 30.636 239.074 29.44C238.482 28.244 237.652 27.314 236.584 26.654C235.516 25.992 234.262 25.662 232.822 25.662C231.382 25.662 230.162 25.992 229.094 26.654C228.026 27.316 227.196 28.246 226.604 29.44C226.012 30.636 225.716 32.036 225.716 33.638C225.716 35.24 226.012 36.634 226.604 37.818C227.196 39.002 228.026 39.926 229.094 40.588C230.162 41.25 231.404 41.58 232.822 41.58Z" fill="#EFEFEF"/>
<path d="M286.624 46.492C284.72 46.492 283.036 46.196 281.572 45.604C280.108 45.012 278.918 44.1 278.002 42.87C277.084 41.64 276.474 40.06 276.174 38.132L281.608 37.052C281.77 38.214 282.084 39.172 282.548 39.926C283.012 40.68 283.598 41.244 284.308 41.616C285.016 41.988 285.788 42.174 286.624 42.174C287.414 42.174 288.076 42.046 288.61 41.79C289.144 41.534 289.55 41.174 289.83 40.71C290.108 40.246 290.248 39.7 290.248 39.072C290.248 38.26 290.022 37.592 289.568 37.068C289.116 36.546 288.32 36.11 287.182 35.762L283.246 34.542C281.574 34.032 280.22 33.196 279.188 32.034C278.154 30.874 277.638 29.48 277.638 27.854C277.638 26.438 277.992 25.194 278.7 24.126C279.408 23.058 280.406 22.228 281.696 21.636C282.984 21.044 284.512 20.748 286.278 20.748C288.044 20.748 289.5 21.016 290.79 21.55C292.078 22.084 293.124 22.84 293.926 23.814C294.728 24.79 295.22 25.962 295.406 27.332L290.216 28.064C289.96 26.972 289.496 26.172 288.822 25.66C288.148 25.15 287.312 24.894 286.314 24.894C285.408 24.894 284.676 25.116 284.12 25.556C283.562 25.998 283.284 26.614 283.284 27.402C283.284 28.03 283.494 28.57 283.912 29.022C284.33 29.474 284.968 29.84 285.828 30.12L290.218 31.478C292.03 32.058 293.428 32.936 294.416 34.108C295.402 35.28 295.896 36.772 295.896 38.584C295.896 40.164 295.536 41.546 294.816 42.73C294.096 43.914 293.044 44.838 291.664 45.5C290.282 46.162 288.604 46.492 286.63 46.492H286.624Z" fill="#EFEFEF"/>
<path d="M254.572 21.342H249.314V45.88H254.572V21.342Z" fill="#EFEFEF"/>
<path d="M259.612 21.342H254.354L262.678 45.882H267.938L259.612 21.342Z" fill="#EFEFEF"/>
<path d="M267.718 45.8821H272.976V21.3441H267.718V45.8821Z" fill="#EFEFEF"/>
<path d="M0.0620117 10.4401V0.246094H2.31801V10.4401H0.0620117ZM1.53801 5.95809V3.92009H5.22601V5.95809H1.53801ZM6.28001 10.4401L3.36001 4.78609L6.31001 0.246094H8.81201L5.44201 5.39409L5.45601 4.09209L8.85401 10.4401H6.28001Z" fill="#EFEFEF"/>
<path d="M14.4076 10.6861C13.3376 10.6861 12.3996 10.4641 11.5956 10.0201C10.7916 9.57609 10.1656 8.95409 9.72362 8.15409C9.27962 7.35409 9.05762 6.41809 9.05762 5.34809C9.05762 4.27809 9.27962 3.32809 9.72362 2.52809C10.1676 1.72809 10.7916 1.10609 11.5956 0.662094C12.3996 0.218094 13.3376 -0.00390625 14.4076 -0.00390625C15.4776 -0.00390625 16.4276 0.218094 17.2276 0.662094C18.0276 1.10609 18.6516 1.72809 19.0996 2.52809C19.5476 3.32809 19.7716 4.26809 19.7716 5.34809C19.7716 6.42809 19.5476 7.35409 19.0996 8.15409C18.6516 8.95409 18.0276 9.57609 17.2276 10.0201C16.4276 10.4641 15.4876 10.6861 14.4076 10.6861ZM14.4076 8.64809C15.0056 8.64809 15.5256 8.51009 15.9696 8.23609C16.4136 7.96209 16.7576 7.57809 17.0036 7.08609C17.2496 6.59409 17.3716 6.01609 17.3716 5.35009C17.3716 4.68409 17.2496 4.10409 17.0036 3.60809C16.7576 3.11209 16.4136 2.72609 15.9696 2.45209C15.5256 2.17809 15.0056 2.04009 14.4076 2.04009C13.8096 2.04009 13.3036 2.17809 12.8596 2.45209C12.4156 2.72609 12.0716 3.11209 11.8256 3.60809C11.5796 4.10409 11.4576 4.68609 11.4576 5.35009C11.4576 6.01409 11.5796 6.59409 11.8256 7.08609C12.0716 7.57809 12.4156 7.96009 12.8596 8.23609C13.3036 8.51009 13.8196 8.64809 14.4076 8.64809Z" fill="#EFEFEF"/>
<path d="M21.4336 10.4401V0.246094H23.6896V10.4401H21.4336ZM22.8656 5.95809V3.93409H28.4616V5.95809H22.8656ZM27.6376 10.4401V0.246094H29.8796V10.4401H27.6376Z" fill="#EFEFEF"/>
<path d="M31.9316 10.4401V0.246094H38.2356V2.28409H34.1876V10.4401H31.9316Z" fill="#EFEFEF"/>
<path d="M39.7256 10.4401V0.246094H44.1076C44.8876 0.246094 45.5496 0.368094 46.0896 0.614094C46.6296 0.860094 47.0416 1.21009 47.3256 1.66209C47.6096 2.11609 47.7516 2.65609 47.7516 3.28209C47.7516 3.90809 47.6096 4.43609 47.3256 4.89409C47.0416 5.35209 46.6296 5.70409 46.0896 5.95009C45.5496 6.19609 44.8896 6.31809 44.1076 6.31809H41.3756V4.49609H44.0216C44.5036 4.49609 44.8776 4.39409 45.1416 4.19209C45.4076 3.99009 45.5396 3.68609 45.5396 3.28209C45.5396 2.87809 45.4076 2.56209 45.1416 2.36409C44.8756 2.16609 44.5036 2.06809 44.0216 2.06809H41.4476L41.9836 1.53209V10.4401H39.7276H39.7256Z" fill="#EFEFEF"/>
<path d="M49.27 10.4401V0.246094H55.85V2.17009H50.5L51.526 0.868094V9.83409L50.5 8.51809H55.88V10.4421H49.272L49.27 10.4401ZM50.746 5.95809V4.03409H54.896V5.95809H50.746Z" fill="#EFEFEF"/>
<path d="M62.0396 10.686C61.0176 10.686 60.1216 10.464 59.3496 10.018C58.5776 9.574 57.9756 8.948 57.5416 8.146C57.1076 7.342 56.8916 6.408 56.8916 5.344C56.8916 4.532 57.0136 3.798 57.2596 3.144C57.5056 2.49 57.8576 1.93 58.3156 1.46C58.7736 0.99 59.3156 0.63 59.9416 0.378C60.5676 0.126 61.2616 0 62.0236 0C62.8616 0 63.5956 0.122 64.2216 0.364C64.8476 0.606 65.3696 0.966 65.7836 1.446C66.1976 1.926 66.4976 2.514 66.6796 3.21L64.4816 3.876C64.2976 3.276 63.9976 2.818 63.5776 2.502C63.1576 2.186 62.6356 2.026 62.0096 2.026C61.4496 2.026 60.9676 2.16 60.5636 2.426C60.1596 2.692 59.8456 3.074 59.6236 3.568C59.4016 4.064 59.2916 4.654 59.2916 5.344C59.2916 6.034 59.4016 6.612 59.6236 7.112C59.8456 7.612 60.1616 7.996 60.5716 8.262C60.9816 8.528 61.4656 8.662 62.0256 8.662C62.6516 8.662 63.1736 8.502 63.5876 8.18C64.0016 7.858 64.3016 7.402 64.4836 6.812L66.6676 7.462C66.4836 8.16 66.1856 8.75 65.7716 9.234C65.3576 9.718 64.8416 10.08 64.2236 10.324C63.6056 10.566 62.8796 10.686 62.0396 10.686Z" fill="#EFEFEF"/>
<path d="M71.7559 10.4401V0.246094H74.0119V10.4401H71.7559ZM73.1879 5.95809V3.93409H78.7839V5.95809H73.1879ZM77.9599 10.4401V0.246094H80.2019V10.4401H77.9599Z" fill="#EFEFEF"/>
<path d="M82.2539 10.4401V0.246094H88.8339V2.17009H83.4839L84.5099 0.868094V9.83409L83.4839 8.51809H88.8639V10.4421H82.2559L82.2539 10.4401ZM83.7299 5.95809V4.03409H87.8799V5.95809H83.7299Z" fill="#EFEFEF"/>
<path d="M94.2556 10.6861C93.7636 10.6861 93.2836 10.6361 92.8176 10.5341C92.3496 10.4321 91.9176 10.2641 91.5236 10.0281C91.1276 9.79209 90.7936 9.46409 90.5196 9.04409C90.2456 8.62409 90.0496 8.09209 89.9336 7.44609L92.2176 7.07009C92.3236 7.64809 92.5456 8.07009 92.8836 8.33609C93.2216 8.60209 93.6596 8.73409 94.1996 8.73409C94.7676 8.73409 95.2096 8.60809 95.5236 8.35809C95.8376 8.10809 95.9936 7.75009 95.9936 7.28809C95.9936 6.82609 95.8496 6.44209 95.5596 6.19609C95.2696 5.95009 94.8456 5.82809 94.2876 5.82809H92.7836V4.22209H94.1716C94.4896 4.22209 94.7576 4.17209 94.9736 4.07009C95.1896 3.96809 95.3596 3.82409 95.4796 3.63609C95.5996 3.44809 95.6596 3.23809 95.6596 3.00609C95.6596 2.66809 95.5336 2.39209 95.2836 2.17409C95.0336 1.95809 94.6616 1.84809 94.1696 1.84809C93.8716 1.84809 93.5956 1.89609 93.3456 1.99209C93.0956 2.08809 92.8896 2.23009 92.7316 2.41809C92.5716 2.60609 92.4736 2.84409 92.4356 3.13409L90.2096 2.83009C90.2956 2.27009 90.4816 1.80809 90.7656 1.44209C91.0496 1.07609 91.3956 0.786094 91.7996 0.574094C92.2036 0.362094 92.6316 0.212094 93.0796 0.126094C93.5276 0.0400937 93.9636 -0.00390625 94.3876 -0.00390625C95.1096 -0.00390625 95.7316 0.102094 96.2536 0.314094C96.7736 0.526094 97.1736 0.826094 97.4536 1.21009C97.7336 1.59609 97.8736 2.05409 97.8736 2.58409C97.8736 3.11409 97.7136 3.54209 97.3956 3.92209C97.0776 4.30409 96.6236 4.56009 96.0356 4.69609C96.4976 4.77409 96.8976 4.93009 97.2356 5.16609C97.5736 5.40209 97.8356 5.71009 98.0236 6.09209C98.2116 6.47409 98.3056 6.90809 98.3056 7.40009C98.3056 8.06609 98.1496 8.64409 97.8356 9.13609C97.5216 9.62809 97.0636 10.0101 96.4616 10.2781C95.8596 10.5481 95.1236 10.6821 94.2556 10.6821V10.6861Z" fill="#EFEFEF"/>
<path d="M100.156 10.686C99.9338 10.686 99.7298 10.668 99.5418 10.636C99.3538 10.602 99.1818 10.556 99.0278 10.498V8.53205C99.1338 8.57005 99.2398 8.59805 99.3458 8.61205C99.4518 8.62605 99.5578 8.63405 99.6638 8.63405C99.8958 8.63405 100.09 8.56805 100.25 8.43605C100.41 8.30405 100.536 8.08405 100.634 7.77605C100.73 7.46805 100.794 7.05405 100.822 6.53605C100.85 6.02805 100.878 5.55405 100.902 5.11405C100.926 4.67405 100.942 4.21005 100.952 3.72205L101.054 0.248047H108.544V10.442H106.288V0.738047L107.17 2.27005H101.906L103.136 0.622047L103.05 3.65005C103.04 3.92405 103.034 4.18605 103.028 4.44005C103.024 4.69405 103.014 4.94005 103 5.17805C102.986 5.41605 102.974 5.67005 102.964 5.93805C102.954 6.20605 102.94 6.49605 102.92 6.80805C102.872 7.73405 102.744 8.48405 102.536 9.05405C102.328 9.62405 102.032 10.04 101.646 10.298C101.26 10.556 100.764 10.686 100.156 10.686Z" fill="#EFEFEF"/>
<path d="M109.888 10.4401L112.866 0.246094H116.582L119.576 10.4401H117.234L114.732 1.34409L112.216 10.4401H109.888ZM112.36 7.34609V5.52409H117.088V7.34609H112.36Z" fill="#EFEFEF"/>
<path d="M120.92 10.4401V0.246094H124.854L126.56 9.40009L128.252 0.246094H132.186V10.4401H130.046V1.36009L128.152 10.4421H124.956L123.076 1.36009V10.4421H120.922L120.92 10.4401Z" fill="#EFEFEF"/>
<path d="M134.224 10.4401V0.246094H136.48V10.4401H134.224ZM135.656 5.95809V3.93409H141.252V5.95809H135.656ZM140.428 10.4401V0.246094H142.67V10.4401H140.428Z" fill="#EFEFEF"/>
<path d="M144.722 10.4401V0.246094H146.876V8.85009L149.898 0.246094H153.512V10.4401H151.358V1.86609L148.336 10.4421H144.72L144.722 10.4401Z" fill="#EFEFEF"/>
<path d="M162.494 10.4401L159.934 6.11609L157.374 10.4401H154.858L158.126 5.04609L155.278 0.246094H157.852L159.934 3.86009L162.002 0.246094H164.576L161.742 5.04609L164.996 10.4401H162.494Z" fill="#EFEFEF"/>
</g>
<defs>
<clipPath id="clip0_81_316">
<rect width="295.892" height="46.528" fill="white"/>
</clipPath>
</defs>
</svg>
