<svg width="275" height="57" viewBox="0 0 275 57" fill="none" xmlns="http://www.w3.org/2000/svg">
<g clip-path="url(#clip0_125_636)">
<path d="M12.3993 56.3351C5.81273 56.3351 0.454102 50.9765 0.454102 44.39C0.454102 37.8035 5.81273 32.4448 12.3993 32.4448C18.9858 32.4448 24.3444 37.8035 24.3444 44.39H19.596C19.596 40.4206 16.3667 37.1914 12.3974 37.1914C8.42805 37.1914 5.19877 40.4206 5.19877 44.39C5.19877 48.3593 8.42805 51.5886 12.3974 51.5886V56.337L12.3993 56.3351Z" fill="#EFEFEF"/>
<path d="M152.356 52.8352C147.699 57.4927 140.12 57.4927 135.462 52.8352C130.805 48.1777 130.805 40.5989 135.462 35.9414C140.12 31.2839 147.699 31.2839 152.356 35.9414L148.999 39.2986C146.193 36.4922 141.626 36.4922 138.82 39.2986C136.013 42.105 136.013 46.6716 138.82 49.478C141.626 52.2843 146.193 52.2843 148.999 49.478L152.356 52.8352Z" fill="#EFEFEF"/>
<path d="M20.5271 56.3355C22.6364 56.3355 24.3462 54.6256 24.3462 52.5164C24.3462 50.4071 22.6364 48.6973 20.5271 48.6973C18.4179 48.6973 16.708 50.4071 16.708 52.5164C16.708 54.6256 18.4179 56.3355 20.5271 56.3355Z" fill="#E4EA5C"/>
<path d="M39.2523 56.3017C36.8614 56.3017 34.7673 55.8065 32.9681 54.816C31.1689 53.8255 29.7741 52.4363 28.7836 50.6482C27.7931 48.8601 27.2979 46.7716 27.2979 44.3807C27.2979 41.9898 27.7931 39.8679 28.7836 38.0798C29.7741 36.2917 31.1689 34.9025 32.9681 33.912C34.7654 32.9215 36.8614 32.4263 39.2523 32.4263C41.6432 32.4263 43.7651 32.9215 45.5532 33.912C47.3412 34.9025 48.7361 36.2917 49.7377 38.0798C50.7393 39.8679 51.2401 41.9676 51.2401 44.3807C51.2401 46.7938 50.7393 48.8601 49.7377 50.6482C48.7361 52.4363 47.3412 53.8255 45.5532 54.816C43.7651 55.8065 41.6654 56.3017 39.2523 56.3017ZM39.2523 51.7463C40.5878 51.7463 41.7507 51.4402 42.7412 50.8263C43.7317 50.2123 44.5015 49.3554 45.0505 48.2573C45.5995 47.1592 45.874 45.8664 45.874 44.3807C45.874 42.895 45.5995 41.5966 45.0505 40.4874C44.5015 39.3782 43.7317 38.5157 42.7412 37.9036C41.7507 37.2897 40.5878 36.9836 39.2523 36.9836C37.9168 36.9836 36.7853 37.2897 35.7949 37.9036C34.8044 38.5176 34.0346 39.3801 33.4856 40.4874C32.9366 41.5966 32.662 42.895 32.662 44.3807C32.662 45.8664 32.9366 47.1592 33.4856 48.2573C34.0346 49.3554 34.8044 50.2123 35.7949 50.8263C36.7853 51.4402 37.9372 51.7463 39.2523 51.7463Z" fill="#EFEFEF"/>
<path d="M54.6714 55.7525V32.9751H63.4596L67.2713 53.4265L71.0515 32.9751H79.8397V55.7525H75.0579V35.4624L70.8252 55.7525H63.6859L59.4865 35.4624V55.7525H54.6732H54.6714Z" fill="#EFEFEF"/>
<path d="M84.3486 55.7525V32.9751H94.1385C95.8839 32.9751 97.3585 33.2496 98.5641 33.7986C99.7697 34.3477 100.692 35.1286 101.326 36.1413C101.96 37.154 102.279 38.3597 102.279 39.7601C102.279 41.1605 101.962 42.3402 101.326 43.3622C100.69 44.3861 99.7697 45.1707 98.5641 45.7215C97.3585 46.2706 95.882 46.5451 94.1385 46.5451H88.0323V42.4737H93.9437C95.0214 42.4737 95.8542 42.2474 96.4477 41.7948C97.0394 41.3423 97.3362 40.6634 97.3362 39.7601C97.3362 38.8568 97.0394 38.1501 96.4477 37.7086C95.856 37.2672 95.0214 37.0465 93.9437 37.0465H88.1937L89.3882 35.8519V55.7544H84.3486V55.7525Z" fill="#EFEFEF"/>
<path d="M105.391 55.7525V32.9751H110.43V54.3948L107.038 51.197H119.671V55.7525H105.391Z" fill="#EFEFEF"/>
<path d="M123.081 55.7525V32.9751H128.121V55.7525H123.081Z" fill="#EFEFEF"/>
<path d="M154.762 55.7525L161.417 32.9751H169.72L176.408 55.7525H171.174L165.585 35.4309L159.963 55.7525H154.762ZM160.286 48.8377V44.7663H170.851V48.8377H160.286Z" fill="#EFEFEF"/>
<path d="M175.651 37.5306V32.9751H192.903V37.5306H175.651ZM181.757 55.7525V34.2345H186.797V55.7525H181.757Z" fill="#EFEFEF"/>
<path d="M195.948 55.7525V32.9751H200.988V55.7525H195.948Z" fill="#EFEFEF"/>
<path d="M216.378 56.3017C213.987 56.3017 211.893 55.8065 210.094 54.816C208.295 53.8255 206.9 52.4363 205.91 50.6482C204.919 48.8601 204.424 46.7716 204.424 44.3807C204.424 41.9898 204.919 39.8679 205.91 38.0798C206.9 36.2917 208.295 34.9025 210.094 33.912C211.891 32.9215 213.987 32.4263 216.378 32.4263C218.769 32.4263 220.891 32.9215 222.679 33.912C224.467 34.9025 225.862 36.2917 226.864 38.0798C227.865 39.8679 228.366 41.9676 228.366 44.3807C228.366 46.7938 227.865 48.8601 226.864 50.6482C225.862 52.4363 224.467 53.8255 222.679 54.816C220.891 55.8065 218.791 56.3017 216.378 56.3017ZM216.378 51.7463C217.714 51.7463 218.877 51.4402 219.867 50.8263C220.858 50.2123 221.627 49.3554 222.176 48.2573C222.726 47.1592 223 45.8664 223 44.3807C223 42.895 222.726 41.5966 222.176 40.4874C221.627 39.3782 220.858 38.5157 219.867 37.9036C218.877 37.2897 217.714 36.9836 216.378 36.9836C215.043 36.9836 213.911 37.2897 212.921 37.9036C211.93 38.5176 211.161 39.3801 210.612 40.4874C210.063 41.5966 209.788 42.895 209.788 44.3807C209.788 45.8664 210.063 47.1592 210.612 48.2573C211.161 49.3554 211.93 50.2123 212.921 50.8263C213.911 51.4402 215.063 51.7463 216.378 51.7463Z" fill="#EFEFEF"/>
<path d="M266.275 56.3017C264.509 56.3017 262.947 56.0272 261.59 55.4782C260.232 54.9292 259.128 54.0833 258.279 52.9426C257.427 51.8019 256.862 50.3366 256.583 48.5485L261.623 47.5469C261.773 48.6246 262.065 49.513 262.495 50.2123C262.925 50.9116 263.469 51.4346 264.127 51.7796C264.784 52.1246 265.5 52.2971 266.275 52.2971C267.008 52.2971 267.622 52.1784 268.117 51.941C268.612 51.7036 268.989 51.3697 269.248 50.9394C269.506 50.5091 269.636 50.0027 269.636 49.4203C269.636 48.6672 269.426 48.0477 269.005 47.5617C268.586 47.0776 267.848 46.6733 266.793 46.3505L263.142 45.2191C261.592 44.7461 260.336 43.9708 259.379 42.8931C258.42 41.8173 257.941 40.5245 257.941 39.0165C257.941 37.7033 258.27 36.5496 258.926 35.5591C259.583 34.5686 260.508 33.7988 261.705 33.2498C262.899 32.7008 264.316 32.4263 265.954 32.4263C267.592 32.4263 268.942 32.6748 270.139 33.1701C271.333 33.6653 272.303 34.3664 273.047 35.2697C273.791 36.1749 274.247 37.2618 274.42 38.5324L269.606 39.2113C269.369 38.1985 268.939 37.4566 268.313 36.9817C267.688 36.5088 266.913 36.2713 265.988 36.2713C265.147 36.2713 264.468 36.4772 263.953 36.8853C263.435 37.2952 263.177 37.8665 263.177 38.5973C263.177 39.1797 263.372 39.6805 263.76 40.0997C264.148 40.5189 264.739 40.8584 265.537 41.118L269.608 42.3775C271.289 42.9154 272.585 43.7296 273.501 44.8166C274.416 45.9035 274.874 47.2872 274.874 48.9677C274.874 50.433 274.54 51.7147 273.872 52.8128C273.205 53.9108 272.229 54.7678 270.949 55.3817C269.668 55.9957 268.111 56.3017 266.281 56.3017H266.275Z" fill="#EFEFEF"/>
<path d="M236.549 32.9771H231.673V55.7341H236.549V32.9771Z" fill="#EFEFEF"/>
<path d="M241.224 32.9771H236.346L244.067 55.7341H248.944L241.224 32.9771Z" fill="#EFEFEF"/>
<path d="M248.741 55.7344H253.618V32.9774H248.741V55.7344Z" fill="#EFEFEF"/>
<path d="M117.917 9.45411L115.543 5.44395L113.169 9.45411H110.835L113.866 4.45161L111.225 0H113.612L115.543 3.35355L117.461 0H119.848L117.22 4.45161L120.238 9.45411H117.917Z" fill="#EFEFEF"/>
<path d="M121.041 9.45411L123.804 0H127.251L130.027 9.45411H127.855L125.535 1.01831L123.201 9.45411H121.042H121.041ZM123.335 6.58467V4.89492H127.72V6.58467H123.335Z" fill="#EFEFEF"/>
<path d="M131.274 9.45411V0H135.338C136.061 0 136.675 0.113145 137.176 0.34129C137.677 0.569435 138.059 0.894032 138.322 1.31322C138.586 1.73427 138.717 2.23322 138.717 2.81564C138.717 3.39806 138.586 3.88588 138.322 4.31064C138.059 4.7354 137.677 5.06185 137.176 5.29C136.675 5.51814 136.063 5.63129 135.338 5.63129H132.804V3.94153H135.258C135.705 3.94153 136.052 3.84693 136.297 3.65959C136.544 3.47226 136.666 3.19032 136.666 2.81564C136.666 2.44097 136.544 2.1479 136.297 1.96427C136.05 1.78064 135.705 1.68976 135.258 1.68976H132.871L133.368 1.19266V9.45411H131.276H131.274Z" fill="#EFEFEF"/>
<path d="M140.125 9.45411V0H142.218V9.45411H140.125ZM141.493 5.29742V3.40734H144.913V5.29742H141.493ZM145.892 9.45411L143.184 4.21048L145.918 0H148.239L145.113 4.77435L145.126 3.56685L148.277 9.45411H145.89H145.892Z" fill="#EFEFEF"/>
<path d="M149.566 9.45411V0H151.659V9.45411H149.566Z" fill="#EFEFEF"/>
<path d="M153.549 9.45411V0H157.318C158.31 0 159.054 0.200322 159.551 0.602822C160.048 1.00532 160.295 1.55992 160.295 2.26661C160.295 2.54484 160.239 2.80637 160.128 3.05121C160.017 3.2979 159.85 3.50935 159.631 3.68742C159.412 3.86548 159.137 4.00088 158.805 4.08992C159.262 4.14371 159.655 4.27911 159.985 4.49984C160.315 4.71871 160.575 5.00806 160.762 5.36419C160.95 5.72217 161.044 6.13395 161.044 6.59766C161.044 7.48241 160.733 8.17983 160.113 8.68991C159.492 9.19999 158.6 9.45411 157.438 9.45411H153.549ZM155.641 8.77153L154.703 7.83298H157.331C157.832 7.83298 158.217 7.72169 158.49 7.49725C158.763 7.27467 158.9 6.93895 158.9 6.49193C158.9 6.04491 158.759 5.72032 158.477 5.49217C158.195 5.26403 157.795 5.15088 157.277 5.15088H155.213V3.66145H157.023C157.416 3.66145 157.719 3.56129 157.928 3.35911C158.138 3.15879 158.243 2.90468 158.243 2.60048C158.243 2.27774 158.138 2.01992 157.928 1.82331C157.719 1.62669 157.416 1.52839 157.023 1.52839H154.703L155.641 0.589838V8.76967V8.77153Z" fill="#EFEFEF"/>
<path d="M163.284 9.57545C162.926 9.57545 162.633 9.4586 162.405 9.22674C162.177 8.99489 162.064 8.70924 162.064 8.36795C162.064 8.02666 162.177 7.75586 162.405 7.524C162.633 7.29215 162.926 7.17529 163.284 7.17529C163.642 7.17529 163.932 7.29215 164.156 7.524C164.379 7.75586 164.492 8.03779 164.492 8.36795C164.492 8.69811 164.381 8.99303 164.156 9.22674C163.932 9.4586 163.642 9.57545 163.284 9.57545Z" fill="#EFEFEF"/>
<path d="M1.03027 22.8667V13.4126H3.12253V22.8667H1.03027ZM2.39914 18.7082V16.8181H5.81946V18.7082H2.39914ZM6.79696 22.8667L4.0889 17.6231L6.82478 13.4126H9.14519L6.01979 18.1869L6.03277 16.9795L9.18414 22.8667H6.79696Z" fill="#EFEFEF"/>
<path d="M14.3323 23.0933C13.34 23.0933 12.47 22.8874 11.7244 22.4756C10.9787 22.0639 10.3982 21.487 9.98827 20.7451C9.57649 20.0031 9.37061 19.1351 9.37061 18.1427C9.37061 17.1504 9.57649 16.2694 9.98827 15.5274C10.4 14.7855 10.9787 14.2086 11.7244 13.7969C12.47 13.3851 13.34 13.1792 14.3323 13.1792C15.3246 13.1792 16.2057 13.3851 16.9476 13.7969C17.6896 14.2086 18.2683 14.7855 18.6837 15.5274C19.0992 16.2694 19.307 17.1411 19.307 18.1427C19.307 19.1444 19.0992 20.0031 18.6837 20.7451C18.2683 21.487 17.6896 22.0639 16.9476 22.4756C16.2057 22.8874 15.3339 23.0933 14.3323 23.0933ZM14.3323 21.2032C14.8869 21.2032 15.3691 21.0752 15.7809 20.8211C16.1927 20.567 16.5117 20.2109 16.7399 19.7546C16.968 19.2983 17.0812 18.7623 17.0812 18.1446C17.0812 17.5269 16.968 16.989 16.7399 16.529C16.5117 16.069 16.1927 15.7111 15.7809 15.4569C15.3691 15.2028 14.8869 15.0748 14.3323 15.0748C13.7777 15.0748 13.3084 15.2028 12.8967 15.4569C12.4849 15.7111 12.1658 16.069 11.9377 16.529C11.7096 16.989 11.5964 17.5288 11.5964 18.1446C11.5964 18.7604 11.7096 19.2983 11.9377 19.7546C12.1658 20.2109 12.4849 20.5652 12.8967 20.8211C13.3084 21.0752 13.787 21.2032 14.3323 21.2032Z" fill="#EFEFEF"/>
<path d="M20.8506 22.8667V13.4126H22.9428V22.8667H20.8506ZM22.1786 18.7082V16.8311H27.3685V18.7082H22.1786ZM26.6043 22.8667V13.4126H28.6836V22.8667H26.6043Z" fill="#EFEFEF"/>
<path d="M30.5874 22.8667V13.4126H36.4338V15.3027H32.6797V22.8667H30.5874Z" fill="#EFEFEF"/>
<path d="M37.8149 22.8667V13.4126H41.8789C42.6023 13.4126 43.2162 13.5257 43.717 13.7539C44.2178 13.982 44.5999 14.3066 44.8633 14.7258C45.1267 15.1469 45.2584 15.6458 45.2584 16.2282C45.2584 16.8107 45.1267 17.2985 44.8633 17.7232C44.5999 18.148 44.2178 18.4744 43.717 18.7026C43.2162 18.9307 42.6041 19.0439 41.8789 19.0439H39.3452V17.3541H41.7991C42.2461 17.3541 42.593 17.2595 42.8378 17.0722C43.0845 16.8849 43.207 16.6029 43.207 16.2282C43.207 15.8536 43.0845 15.5605 42.8378 15.3769C42.5911 15.1932 42.2461 15.1024 41.7991 15.1024H39.412L39.9091 14.6053V22.8667H37.8168H37.8149Z" fill="#EFEFEF"/>
<path d="M46.666 22.8667V13.4126H52.7684V15.197H47.8067L48.7583 13.9895V22.3047L47.8067 21.0842H52.7963V22.8686H46.6679L46.666 22.8667ZM48.0349 18.7082V16.9238H51.8837V18.7082H48.0349Z" fill="#EFEFEF"/>
<path d="M58.5073 23.093C57.5594 23.093 56.7285 22.8871 56.0125 22.4735C55.2965 22.0599 54.7382 21.4812 54.3357 20.7374C53.9332 19.9917 53.7329 19.1255 53.7329 18.1387C53.7329 17.3857 53.8461 16.705 54.0742 16.0984C54.3024 15.4919 54.6288 14.9725 55.0536 14.5366C55.4783 14.1008 55.981 13.7669 56.5615 13.5332C57.1421 13.2995 57.7857 13.1826 58.4924 13.1826C59.2696 13.1826 59.9503 13.2958 60.5309 13.5202C61.1115 13.7446 61.5956 14.0785 61.9795 14.5237C62.3635 14.9688 62.6417 15.5141 62.8105 16.1596L60.772 16.7773C60.6014 16.2208 60.3232 15.7961 59.9336 15.503C59.5441 15.21 59.06 15.0616 58.4794 15.0616C57.9601 15.0616 57.5131 15.1858 57.1384 15.4325C56.7637 15.6792 56.4725 16.0335 56.2666 16.4916C56.0607 16.9498 55.9587 17.4988 55.9587 18.1387C55.9587 18.7787 56.0607 19.3147 56.2666 19.7784C56.4725 20.2421 56.7656 20.5983 57.1458 20.8449C57.5261 21.0916 57.9749 21.2159 58.4943 21.2159C59.0748 21.2159 59.559 21.0675 59.9429 20.7689C60.3269 20.4703 60.6051 20.0474 60.7739 19.5002L62.7994 20.103C62.6287 20.7504 62.3523 21.2975 61.9684 21.7464C61.5844 22.1953 61.1059 22.531 60.5327 22.7573C59.9596 22.9817 59.2863 23.093 58.5073 23.093Z" fill="#EFEFEF"/>
<path d="M67.521 22.8667V13.4126H69.6133V22.8667H67.521ZM68.8491 18.7082V16.8311H74.0389V18.7082H68.8491ZM73.2747 22.8667V13.4126H75.354V22.8667H73.2747Z" fill="#EFEFEF"/>
<path d="M77.2563 22.8667V13.4126H83.3588V15.197H78.3971L79.3486 13.9895V22.3047L78.3971 21.0842H83.3866V22.8686H77.2582L77.2563 22.8667ZM78.6234 18.7082V16.9238H82.4721V18.7082H78.6234Z" fill="#EFEFEF"/>
<path d="M88.3867 23.0933C87.9304 23.0933 87.4853 23.0469 87.0531 22.9523C86.6191 22.8577 86.2184 22.7019 85.853 22.4831C85.4858 22.2642 85.176 21.96 84.9219 21.5705C84.6678 21.181 84.486 20.6876 84.3784 20.0885L86.4966 19.7398C86.595 20.2758 86.8008 20.6672 87.1143 20.9139C87.4278 21.1606 87.834 21.283 88.3348 21.283C88.8616 21.283 89.2715 21.1661 89.5627 20.9343C89.8539 20.7024 89.9986 20.3704 89.9986 19.9419C89.9986 19.5135 89.865 19.1573 89.5961 18.9292C89.3271 18.701 88.9339 18.5879 88.4164 18.5879H87.0216V17.0985H88.3088C88.6037 17.0985 88.8523 17.0521 89.0526 16.9575C89.2529 16.8629 89.4106 16.7294 89.5219 16.555C89.6332 16.3806 89.6888 16.1859 89.6888 15.9707C89.6888 15.6573 89.572 15.4013 89.3401 15.1991C89.1083 14.9988 88.7633 14.8968 88.307 14.8968C88.0306 14.8968 87.7746 14.9413 87.5428 15.0303C87.3109 15.1194 87.1199 15.2511 86.9733 15.4254C86.825 15.5998 86.7341 15.8205 86.6988 16.0894L84.6344 15.8075C84.7141 15.29 84.8866 14.8597 85.15 14.5202C85.4134 14.1808 85.7343 13.9119 86.109 13.7152C86.4837 13.5186 86.8806 13.3795 87.2961 13.2998C87.7116 13.22 88.1159 13.1792 88.5091 13.1792C89.1787 13.1792 89.7556 13.2775 90.2397 13.4741C90.722 13.6707 91.0929 13.949 91.3526 14.3051C91.6123 14.6631 91.7421 15.0878 91.7421 15.5794C91.7421 16.0709 91.5937 16.4678 91.2988 16.8202C91.0039 17.1727 90.5828 17.4119 90.0375 17.5381C90.466 17.6104 90.837 17.7551 91.1504 17.974C91.4639 18.1928 91.7069 18.4785 91.8812 18.8327C92.0556 19.1852 92.1428 19.5895 92.1428 20.0458C92.1428 20.6635 91.9981 21.1995 91.7069 21.6558C91.4157 22.1121 90.9909 22.4645 90.4326 22.7149C89.8743 22.9653 89.1917 23.0896 88.3867 23.0896V23.0933Z" fill="#EFEFEF"/>
<path d="M93.8581 23.0934C93.6523 23.0934 93.4631 23.0785 93.2887 23.047C93.1144 23.0155 92.9548 22.9728 92.812 22.919V21.0957C92.9103 21.131 93.0086 21.1569 93.1069 21.1699C93.2052 21.1829 93.3035 21.1903 93.4019 21.1903C93.617 21.1903 93.7969 21.1291 93.9453 21.0067C94.0937 20.8843 94.2106 20.6802 94.3014 20.3946C94.3905 20.1089 94.4498 19.725 94.4758 19.2446C94.5018 18.7735 94.5277 18.3339 94.55 17.9258C94.5723 17.5177 94.5871 17.0874 94.5964 16.633L94.691 13.4111H101.637V22.8652H99.5451V13.8674L100.363 15.2882H95.4811L96.6219 13.7598L96.5421 16.5681C96.5328 16.8222 96.5273 17.0652 96.5217 17.3007C96.518 17.5363 96.5087 17.7644 96.4957 17.9852C96.4827 18.2077 96.4716 18.4415 96.4623 18.69C96.4531 18.9385 96.4401 19.2075 96.4215 19.4969C96.377 20.3556 96.2583 21.0512 96.0654 21.5798C95.8725 22.1085 95.598 22.4943 95.24 22.7335C94.882 22.9728 94.422 23.0934 93.8581 23.0934Z" fill="#EFEFEF"/>
<path d="M102.884 22.8667L105.646 13.4126H109.092L111.869 22.8667H109.697L107.377 14.4309L105.043 22.8667H102.884ZM105.177 19.9954V18.3057H109.562V19.9954H105.177Z" fill="#EFEFEF"/>
<path d="M113.116 22.8667V13.4126H116.764L118.346 21.9022L119.916 13.4126H123.564V22.8667H121.579V14.4439L119.823 22.8667H116.859L115.115 14.4439V22.8667H113.118H113.116Z" fill="#EFEFEF"/>
<path d="M125.455 22.8667V13.4126H127.547V22.8667H125.455ZM126.783 18.7082V16.8311H131.972V18.7082H126.783ZM131.208 22.8667V13.4126H133.288V22.8667H131.208Z" fill="#EFEFEF"/>
<path d="M135.19 22.8667V13.4126H137.187V21.3921L139.99 13.4126H143.342V22.8667H141.344V14.9132L138.542 22.8667H135.188H135.19Z" fill="#EFEFEF"/>
<path d="M151.672 22.8667L149.298 18.8565L146.924 22.8667H144.59L147.621 17.8642L144.98 13.4126H147.367L149.298 16.7661L151.216 13.4126H153.603L150.975 17.8642L153.993 22.8667H151.672Z" fill="#EFEFEF"/>
<path d="M158.444 22.8671V13.413H160.536V22.8671H158.444ZM159.677 15.2882V13.4111H164.988V15.2882H159.677ZM164.023 22.8671V13.413H166.102V22.8671H164.023Z" fill="#EFEFEF"/>
<path d="M168.006 22.8667V13.4126H172.07C172.793 13.4126 173.407 13.5257 173.908 13.7539C174.409 13.982 174.791 14.3066 175.054 14.7258C175.318 15.1469 175.449 15.6458 175.449 16.2282C175.449 16.8107 175.318 17.2985 175.054 17.7232C174.791 18.148 174.409 18.4744 173.908 18.7026C173.407 18.9307 172.795 19.0439 172.07 19.0439H169.536V17.3541H171.99C172.437 17.3541 172.784 17.2595 173.029 17.0722C173.275 16.8849 173.398 16.6029 173.398 16.2282C173.398 15.8536 173.275 15.5605 173.029 15.3769C172.782 15.1932 172.437 15.1024 171.99 15.1024H169.603L170.1 14.6053V22.8667H168.008H168.006Z" fill="#EFEFEF"/>
<path d="M181.604 23.0933C180.611 23.0933 179.742 22.8874 178.996 22.4756C178.25 22.0639 177.67 21.487 177.26 20.7451C176.848 20.0031 176.642 19.1351 176.642 18.1427C176.642 17.1504 176.848 16.2694 177.26 15.5274C177.672 14.7855 178.25 14.2086 178.996 13.7969C179.742 13.3851 180.611 13.1792 181.604 13.1792C182.596 13.1792 183.477 13.3851 184.219 13.7969C184.961 14.2086 185.54 14.7855 185.955 15.5274C186.371 16.2694 186.578 17.1411 186.578 18.1427C186.578 19.1444 186.371 20.0031 185.955 20.7451C185.54 21.487 184.961 22.0639 184.219 22.4756C183.477 22.8874 182.605 23.0933 181.604 23.0933ZM181.604 21.2032C182.158 21.2032 182.641 21.0752 183.052 20.8211C183.464 20.567 183.783 20.2109 184.011 19.7546C184.239 19.2983 184.353 18.7623 184.353 18.1446C184.353 17.5269 184.239 16.989 184.011 16.529C183.783 16.069 183.464 15.7111 183.052 15.4569C182.641 15.2028 182.158 15.0748 181.604 15.0748C181.049 15.0748 180.58 15.2028 180.168 15.4569C179.756 15.7111 179.437 16.069 179.209 16.529C178.981 16.989 178.868 17.5288 178.868 18.1446C178.868 18.7604 178.981 19.2983 179.209 19.7546C179.437 20.2109 179.756 20.5652 180.168 20.8211C180.58 21.0752 181.058 21.2032 181.604 21.2032Z" fill="#EFEFEF"/>
<path d="M192.239 22.1692C191.364 22.1692 190.598 21.9986 189.947 21.6592C189.294 21.3197 188.787 20.8412 188.424 20.2235C188.062 19.6059 187.88 18.8917 187.88 18.0775C187.88 17.2632 188.062 16.5491 188.424 15.9314C188.786 15.3138 189.294 14.8389 189.947 14.5032C190.6 14.1675 191.364 14.0005 192.239 14.0005H192.842V15.7441H192.293C191.818 15.7441 191.412 15.8387 191.073 16.026C190.733 16.2134 190.473 16.4805 190.295 16.8236C190.117 17.1686 190.026 17.5859 190.026 18.0775C190.026 18.569 190.115 18.9752 190.295 19.3239C190.473 19.6726 190.733 19.9416 191.073 20.1289C191.412 20.3163 191.818 20.4109 192.293 20.4109H192.842V22.1674H192.239V22.1692ZM192.427 23.2673V21.1751L192.493 21.0137V15.1394L192.427 14.978V13.0063H194.519V15.004L194.452 15.2451V20.9042L194.519 21.1454V23.2636H192.427V23.2673ZM194.09 22.1692V20.4127H194.639C195.112 20.4127 195.52 20.3181 195.86 20.1308C196.199 19.9434 196.459 19.6745 196.637 19.3258C196.815 18.9771 196.906 18.5616 196.906 18.0793C196.906 17.5971 196.817 17.1705 196.637 16.8255C196.459 16.4823 196.199 16.2152 195.86 16.0279C195.52 15.8405 195.112 15.7459 194.639 15.7459H194.09V14.0024H194.708C195.574 14.0024 196.335 14.1693 196.988 14.5051C197.641 14.8408 198.151 15.3156 198.516 15.9333C198.883 16.5509 199.065 17.2651 199.065 18.0793C199.065 18.8936 198.881 19.6077 198.516 20.2254C198.149 20.843 197.641 21.3216 196.988 21.661C196.335 22.0005 195.574 22.1711 194.708 22.1711H194.09V22.1692Z" fill="#EFEFEF"/>
<path d="M200.474 22.8667V13.4126H206.576V15.197H201.614L202.566 13.9895V22.3047L201.614 21.0842H206.604V22.8686H200.475L200.474 22.8667ZM201.841 18.7082V16.9238H205.689V18.7082H201.841Z" fill="#EFEFEF"/>
<path d="M212.314 23.093C211.366 23.093 210.535 22.8871 209.819 22.4735C209.103 22.0599 208.545 21.4812 208.142 20.7374C207.74 19.9917 207.54 19.1255 207.54 18.1387C207.54 17.3857 207.653 16.705 207.881 16.0984C208.109 15.4919 208.435 14.9725 208.86 14.5366C209.285 14.1008 209.788 13.7669 210.368 13.5332C210.949 13.2995 211.592 13.1826 212.299 13.1826C213.076 13.1826 213.757 13.2958 214.338 13.5202C214.918 13.7446 215.402 14.0785 215.786 14.5237C216.17 14.9688 216.448 15.5141 216.617 16.1596L214.579 16.7773C214.408 16.2208 214.13 15.7961 213.74 15.503C213.351 15.21 212.867 15.0616 212.286 15.0616C211.767 15.0616 211.32 15.1858 210.945 15.4325C210.57 15.6792 210.279 16.0335 210.073 16.4916C209.867 16.9498 209.765 17.4988 209.765 18.1387C209.765 18.7787 209.867 19.3147 210.073 19.7784C210.279 20.2421 210.572 20.5983 210.952 20.8449C211.333 21.0916 211.782 21.2159 212.301 21.2159C212.881 21.2159 213.366 21.0675 213.75 20.7689C214.134 20.4703 214.412 20.0474 214.581 19.5002L216.606 20.103C216.435 20.7504 216.159 21.2975 215.775 21.7464C215.391 22.1953 214.913 22.531 214.339 22.7573C213.766 22.9817 213.093 23.093 212.314 23.093Z" fill="#EFEFEF"/>
<path d="M218.123 22.8667V13.4126H220.215V22.8667H218.123Z" fill="#EFEFEF"/>
<path d="M226.718 23.0933C225.725 23.0933 224.855 22.8874 224.11 22.4756C223.364 22.0639 222.783 21.487 222.374 20.7451C221.962 20.0031 221.756 19.1351 221.756 18.1427C221.756 17.1504 221.962 16.2694 222.374 15.5274C222.785 14.7855 223.364 14.2086 224.11 13.7969C224.855 13.3851 225.725 13.1792 226.718 13.1792C227.71 13.1792 228.591 13.3851 229.333 13.7969C230.075 14.2086 230.654 14.7855 231.069 15.5274C231.484 16.2694 231.692 17.1411 231.692 18.1427C231.692 19.1444 231.484 20.0031 231.069 20.7451C230.654 21.487 230.075 22.0639 229.333 22.4756C228.591 22.8874 227.719 23.0933 226.718 23.0933ZM226.718 21.2032C227.272 21.2032 227.754 21.0752 228.166 20.8211C228.578 20.567 228.897 20.2109 229.125 19.7546C229.353 19.2983 229.466 18.7623 229.466 18.1446C229.466 17.5269 229.353 16.989 229.125 16.529C228.897 16.069 228.578 15.7111 228.166 15.4569C227.754 15.2028 227.272 15.0748 226.718 15.0748C226.163 15.0748 225.694 15.2028 225.282 15.4569C224.87 15.7111 224.551 16.069 224.323 16.529C224.095 16.989 223.982 17.5288 223.982 18.1446C223.982 18.7604 224.095 19.2983 224.323 19.7546C224.551 20.2109 224.87 20.5652 225.282 20.8211C225.694 21.0752 226.172 21.2032 226.718 21.2032Z" fill="#EFEFEF"/>
<path d="M233.235 22.8667V13.4126H235.327V22.8667H233.235ZM234.563 18.7082V16.8311H239.753V18.7082H234.563ZM238.989 22.8667V13.4126H241.068V22.8667H238.989Z" fill="#EFEFEF"/>
<path d="M242.328 22.8667L245.089 13.4126H248.536L251.312 22.8667H249.14L246.82 14.4309L244.487 22.8667H242.328ZM244.622 19.9954V18.3057H249.007V19.9954H244.622Z" fill="#EFEFEF"/>
<path d="M253.151 23.0934C252.945 23.0934 252.756 23.0785 252.582 23.047C252.407 23.0155 252.248 22.9728 252.105 22.919V21.0957C252.203 21.131 252.302 21.1569 252.4 21.1699C252.498 21.1829 252.597 21.1903 252.695 21.1903C252.91 21.1903 253.09 21.1291 253.238 21.0067C253.387 20.8843 253.504 20.6802 253.594 20.3946C253.683 20.1089 253.743 19.725 253.769 19.2446C253.795 18.7735 253.821 18.3339 253.843 17.9258C253.865 17.5177 253.88 17.0874 253.889 16.633L253.984 13.4111H260.93V22.8652H258.838V13.8674L259.656 15.2882H254.774L255.915 13.7598L255.835 16.5681C255.826 16.8222 255.82 17.0652 255.815 17.3007C255.811 17.5363 255.802 17.7644 255.789 17.9852C255.776 18.2077 255.765 18.4415 255.755 18.69C255.746 18.9385 255.733 19.2075 255.715 19.4969C255.67 20.3556 255.551 21.0512 255.358 21.5798C255.165 22.1085 254.891 22.4943 254.533 22.7335C254.175 22.9728 253.715 23.0934 253.151 23.0934Z" fill="#EFEFEF"/>
<path d="M262.82 22.8667V13.4126H264.912V22.8667H262.82Z" fill="#EFEFEF"/>
<path d="M266.802 22.8667V13.4126H270.571C271.563 13.4126 272.307 13.6129 272.804 14.0154C273.301 14.4179 273.548 14.9725 273.548 15.6792C273.548 15.9574 273.492 16.219 273.381 16.4638C273.27 16.7105 273.103 16.922 272.884 17.1C272.665 17.2781 272.39 17.4135 272.058 17.5025C272.515 17.5563 272.908 17.6917 273.238 17.9124C273.568 18.1313 273.828 18.4207 274.015 18.7768C274.203 19.1348 274.297 19.5465 274.297 20.0103C274.297 20.895 273.986 21.5924 273.366 22.1025C272.745 22.6126 271.852 22.8667 270.691 22.8667H266.802ZM268.894 22.1823L267.955 21.2437H270.584C271.085 21.2437 271.47 21.1324 271.743 20.908C272.016 20.6854 272.153 20.3497 272.153 19.9027C272.153 19.4557 272.012 19.1311 271.73 18.9029C271.448 18.6748 271.047 18.5616 270.53 18.5616H268.466V17.0722H270.276C270.669 17.0722 270.971 16.972 271.181 16.7699C271.391 16.5695 271.496 16.3154 271.496 16.0112C271.496 15.6885 271.391 15.4307 271.181 15.234C270.971 15.0374 270.669 14.9391 270.276 14.9391H267.955L268.894 14.0006V22.1804V22.1823Z" fill="#EFEFEF"/>
</g>
<defs>
<clipPath id="clip0_125_636">
<rect width="275" height="56.3351" fill="white"/>
</clipPath>
</defs>
</svg>
